<svg xmlns="http://www.w3.org/2000/svg" xmlns:xlink="http://www.w3.org/1999/xlink" width="500" zoomAndPan="magnify" viewBox="0 0 375 374.999991" height="500" preserveAspectRatio="xMidYMid meet" version="1.0"><defs><g/><clipPath id="a830e477e6"><path d="M 37.5 32.058594 L 337.5 32.058594 L 337.5 343.308594 L 37.5 343.308594 Z M 37.5 32.058594 " clip-rule="nonzero"/></clipPath></defs><g clip-path="url(#a830e477e6)"><path fill="#38b6ff" d="M 304.699219 183.523438 C 295.976562 183.523438 288.085938 186.984375 282.253906 192.589844 L 282.253906 88.660156 L 181.683594 88.660156 C 188.300781 82.714844 192.484375 74.113281 192.484375 64.515625 C 192.484375 46.59375 177.972656 32.058594 160.070312 32.058594 C 142.167969 32.058594 127.652344 46.59375 127.652344 64.515625 C 127.652344 74.113281 131.839844 82.714844 138.460938 88.660156 L 37.882812 88.660156 L 37.882812 190.417969 C 43.371094 186.074219 50.300781 183.53125 57.835938 183.53125 C 75.738281 183.53125 90.25 198.054688 90.25 215.984375 C 90.25 233.90625 75.738281 248.441406 57.835938 248.441406 C 50.300781 248.441406 43.371094 245.894531 37.882812 241.546875 L 37.882812 343.308594 L 133.910156 343.308594 C 129.976562 337.9375 127.652344 331.332031 127.652344 324.15625 C 127.652344 306.234375 142.167969 291.703125 160.070312 291.703125 C 177.972656 291.703125 192.484375 306.234375 192.484375 324.15625 C 192.484375 331.332031 190.171875 337.9375 186.226562 343.308594 L 282.253906 343.308594 L 282.253906 239.363281 C 288.085938 244.964844 295.976562 248.433594 304.699219 248.433594 C 322.601562 248.433594 337.117188 233.898438 337.117188 215.976562 C 337.117188 198.046875 322.601562 183.523438 304.699219 183.523438 " fill-opacity="1" fill-rule="nonzero"/></g><g fill="#ffffff" fill-opacity="1"><g transform="translate(115.57414, 254.997869)"><g><path d="M 88.484375 -117.375 L 88.484375 -101.65625 L 57.25 -101.65625 L 57.25 0 L 38 0 L 38 -101.65625 L 6.59375 -101.65625 L 6.59375 -117.375 Z M 88.484375 -117.375 "/></g></g></g></svg>